<svg width="26" height="26" viewBox="0 0 26 26" fill="none" xmlns="http://www.w3.org/2000/svg">
<path d="M12.6242 0C9.27609 0 6.06506 1.33005 3.69756 3.69756C1.33005 6.06506 0 9.27609 0 12.6242C0.000446699 13.0553 0.0238581 13.4861 0.0701347 13.9147C0.398352 17.0155 1.86249 19.8851 4.18044 21.9706C6.4984 24.0562 9.50617 25.2101 12.6242 25.2101C15.7423 25.2101 18.7501 24.0562 21.0681 21.9706C23.386 19.8851 24.8501 17.0155 25.1784 13.9147C25.2246 13.4861 25.248 13.0553 25.2485 12.6242C25.2485 9.27609 23.9184 6.06506 21.5509 3.69756C19.1834 1.33005 15.9724 0 12.6242 0V0ZM20.2268 18.8242C20.2128 18.8242 20.1427 18.9364 20.1287 18.9364C19.2104 20.0341 18.0625 20.917 16.7658 21.5229C15.4692 22.1287 14.0554 22.4427 12.6242 22.4427C11.1931 22.4427 9.7793 22.1287 8.48267 21.5229C7.18604 20.917 6.03811 20.0341 5.11983 18.9364C5.10581 18.9364 5.03567 18.8242 5.02164 18.8242C4.94462 18.7124 4.90085 18.5811 4.8954 18.4454C4.89802 18.2983 4.94492 18.1553 5.02999 18.0352C5.11507 17.9151 5.23436 17.8234 5.37232 17.7721C6.41031 17.4215 7.40622 17.0848 7.68676 17.0147C7.68024 16.983 7.68063 16.9504 7.68789 16.9189C7.69515 16.8874 7.70912 16.8579 7.72884 16.8323C7.76562 16.6965 7.84318 16.5753 7.95104 16.485C8.0589 16.3947 8.19187 16.3397 8.332 16.3274L10.1134 16.1871C10.0984 15.8038 10.0078 15.4272 9.84691 15.079V15.0649C9.6966 14.6687 9.48347 14.2993 9.2157 13.9708C8.48216 13.0139 8.09186 11.838 8.10757 10.6324C8.03 9.3926 8.44212 8.17187 9.2553 7.23278C10.0685 6.29368 11.2178 5.71126 12.4559 5.61078H12.7926C14.0307 5.71126 15.18 6.29368 15.9932 7.23278C16.8064 8.17187 17.2185 9.3926 17.1409 10.6324C17.1566 11.838 16.7663 13.0139 16.0328 13.9708C15.765 14.2993 15.5519 14.6687 15.4016 15.0649V15.079C15.2407 15.4272 15.1501 15.8038 15.1351 16.1871L16.9165 16.3274C17.0566 16.3397 17.1896 16.3947 17.2975 16.485C17.4053 16.5753 17.4829 16.6965 17.5196 16.8323C17.5394 16.8579 17.5533 16.8874 17.5606 16.9189C17.5679 16.9504 17.5682 16.983 17.5617 17.0147C17.8423 17.0848 18.8382 17.4215 19.8762 17.7721C19.979 17.8051 20.0726 17.8619 20.1494 17.9378C20.2262 18.0138 20.2841 18.1068 20.3182 18.2092C20.3524 18.3117 20.3619 18.4208 20.346 18.5276C20.3302 18.6345 20.2893 18.736 20.2268 18.8242Z" fill="#2FC18C"/>
</svg>
